<?xml version="1.0" encoding="utf-8"?>
<!-- Generator: Adobe Illustrator 14.0.0, SVG Export Plug-In . SVG Version: 6.00 Build 43363)  -->
<!DOCTYPE svg PUBLIC "-//W3C//DTD SVG 1.1//EN" "http://www.w3.org/Graphics/SVG/1.1/DTD/svg11.dtd">
<svg version="1.1" id="レイヤー_1" xmlns="http://www.w3.org/2000/svg" xmlns:xlink="http://www.w3.org/1999/xlink" x="0px"
	 y="0px" width="414.876px" height="134.711px" viewBox="0 0 414.876 134.711" enable-background="new 0 0 414.876 134.711"
	 xml:space="preserve">
<g>
	<path fill="#231815" d="M25.361,101.366l-0.739-1.09l2.795-1.867L12.571,75.877L9.72,77.8l-0.716-1.151l20.6-13.562l5.022,7.157
		l-1.095,0.768c-4.694-3.882-7.268-4.104-10.826-1.747l-3.896,2.515l6.774,10.341c3.636-2.407,3.715-3.997,2.204-7.879l1.225-0.827
		l6.931,10.559l-1.238,0.772c-2.837-3.23-4.621-3.725-8.257-1.322l7.194,10.892l3.465-2.251l0.739,1.1L25.361,101.366z"/>
	<path fill="#231815" d="M44.546,56.032l2.81-1.534c4.519-2.454,4.598-0.813,5.614,1.044l2.066,3.771
		c1.492,2.735,0.73,3.997-3.207,6.179l-1.618,0.877L44.546,56.032z M61.38,79.108l-0.633-1.142l-3.262,1.747l-6.594-12.037
		l1.677-0.934c3.114-1.691,4.492-1.146,7.088,3.447c3.41,5.914,6.173,7.223,10.918,4.593c1.41-0.753,3.018-2.348,3.914-3.715
		l-0.702-0.656c-1.709,1.474-2.657,1.585-3.073,1.474c-0.864-0.272-1.788-1.585-3.558-4.81c-2.047-3.767-5.467-4.648-11.427-2.727
		l-0.056-0.061c3.073-2.13,7.819-6.345,5.462-10.604c-2.481-4.598-7.532-4.104-11.423-1.974L34.27,60.181l0.633,1.164l3.119-1.705
		l12.947,23.678l-3.049,1.648l0.647,1.138L61.38,79.108z"/>
	<path fill="#231815" d="M79.147,47.501l7.91,8.47l-7.319,3.119L79.147,47.501z M84.794,67.408l-0.518-1.206
		c-0.563,0.213-3.535,1.853-3.974,0.874c-0.148-0.384-0.287-1.701-0.37-3.115l-0.194-3.396l8.336-3.604l4.972,5.467l-3.156,1.367
		L90.413,65l12.924-5.577l-0.531-1.201l-2.439,1.034L78.833,36.999l-1.58,0.661l1.293,29.577c0.069,1.433-1.732,2.135-2.717,2.574
		l0.536,1.201L84.794,67.408z"/>
	<path fill="#231815" d="M129.375,51.813l-0.98,0.337l-26.042-19.463l6.83,21.709c0.333,1.021,1.063,1.313,2.163,1.021l2.402-0.748
		l0.402,1.252l-9.32,2.953l-0.383-1.262l2.033-0.651c1.4-0.55,1.202-1.475,0.809-2.681l-6.571-20.886
		c-0.661-2.065-0.453-2.727-2.994-1.964l-1.386,0.439l-0.416-1.262l11.173-3.498l17.162,12.957l-4.491-14.209
		c-0.268-0.878-2.125-0.717-3.179-0.389l-1.188,0.389l-0.393-1.262l8.927-2.818l0.407,1.247l-1.793,0.578
		c-1.211,0.393-1.774,0.952-1.511,1.811L129.375,51.813z"/>
	<path fill="#231815" d="M152.941,15.623l1.479-0.296l1.64,8.082l-1.247,0.259c-2.472-3.697-5.3-6.678-10.12-5.688
		c-4.053,0.813-5.176,2.458-2.68,14.708c2.204,10.983,2.911,14.158,8.47,13.013c4.954-0.989,6.719-5.037,7.218-9.741l1.479-0.314
		l1.719,8.632l-1.543,0.323l-2.024-1.316c-1.812,1.807-3.983,3.175-6.446,3.669c-7.716,1.594-15.586-3.831-17.351-12.513
		c-1.109-5.467,2.842-16.137,10.767-17.744c2.597-0.518,5.083-0.306,7.508,0.929L152.941,15.623z"/>
	<path fill="#231815" d="M180.851,12.37l10.729-0.929l0.106,1.34l-3.221,0.277c-0.661,0.051-0.999,0.249-1.386,0.763l-7.005,8.664
		l13.945,17.143l3.179-0.277l0.102,1.373l-15.549,1.307l-0.115-1.307l3.581-0.333l-9.459-11.695
		c-0.416-0.541-0.869-1.146-0.915-1.751c-0.069-0.712,0.684-1.313,1.178-1.913l8.202-10.115c0.453-0.518,0.67-0.934,0.67-0.979
		c-0.032-0.522-0.892-0.49-1.77-0.411l-2.172,0.162L180.851,12.37z M164.863,43.509l-0.102-1.317l3.405-0.323l-2.324-26.87
		l-3.313,0.301l-0.125-1.345l14.542-1.257l0.125,1.35l-3.808,0.323l2.319,26.902l3.706-0.333l0.129,1.313L164.863,43.509z"/>
	<path fill="#231815" d="M256.161,44.161l3.66,0.49l-0.194,1.326l-14.616-1.979l0.162-1.313l3.891,0.551l3.586-26.51l-0.092-0.032
		l-12.306,26.708l-1.595-0.227l-4.644-29.056l-0.093-0.027l-3.221,24c-0.383,2.902,1.234,2.847,3.789,3.18l-0.184,1.303
		l-9.349-1.262l0.161-1.313c2.412,0.338,3.883,0.827,4.261-2.13l3.235-24.074l-3.9-0.522l0.185-1.316l12.338,1.645l2.735,18.428
		l7.693-17.004l11.922,1.58l-0.186,1.321l-3.65-0.499L256.161,44.161z"/>
	<path fill="#231815" d="M269.016,17.84l14.223,3.613l-0.323,1.285l-3.604-0.901l-5.305,20.794
		c-0.979,3.992-0.508,6.178,4.344,7.495c3.383,0.873,5.707-0.277,6.908-1.317c1.262-0.818,2.102-4.099,3.003-7.652l3.665-14.431
		c0.217-0.868-0.268-1.783-1.525-2.079l-1.932-0.489l0.332-1.304l9.049,2.302l-0.324,1.294l-2.564-0.652
		c-0.984-0.217-1.511,0.384-1.742,1.262l-4.496,17.651c-0.54,2.19-1.279,4.436-3.211,5.638c-2.043,1.362-4.77,1.742-9.703,0.485
		c-7.033-1.798-10.25-5.199-8.479-12.195l4.745-18.64l-3.383-0.869L269.016,17.84z"/>
	<path fill="#231815" d="M292.803,54.724l0.449-1.258l2.851,0.971l9.024-25.358l-2.842-1.04l0.453-1.257l13.631,4.87l-0.43,1.257
		l-3.766-1.367l-9.048,25.419l4.681,1.695c4.728,1.636,7.879-1.631,10.582-5.143l1.178,0.384l-3.688,9.02L292.803,54.724z"/>
	<path fill="#231815" d="M318.56,64.016l0.555-1.257l2.754,1.257l11.017-24.61l-2.727-1.257l0.545-1.211l13.178,5.91l-0.554,1.201
		l-3.637-1.58L328.67,67.076l4.552,2.019c4.552,2.033,7.979-0.979,10.929-4.256l1.154,0.49l-4.381,8.701L318.56,64.016z"/>
	<path fill="#231815" d="M344.141,75.549l0.633-1.146l3.119,1.7l12.892-23.69l-2.782-1.529l0.648-1.146l21.32,11.607l-3.577,7.098
		l-1.34-0.711c0.771-5.305-0.167-7.657-4.066-9.788l-3.665-1.973l-5.9,10.892c3.808,2.07,5.24,1.358,7.98-1.812l1.28,0.712
		l-6.017,11.099l-1.303-0.702c1.496-4.058,1.141-5.859-2.681-7.938l-6.251,11.432l3.834,2.08c6.031,3.28,8.674,1.044,12.176-2.894
		l1.225,0.651l-4.884,8.424L344.141,75.549z"/>
	<path fill="#231815" d="M394.711,71.997l2.67,1.756c4.32,2.786,2.921,3.66,1.766,5.41l-2.329,3.614
		c-1.677,2.62-3.188,2.56-6.945,0.105l-1.571-0.983L394.711,71.997z M382.401,97.757l0.726-1.1l-3.096-2.02l7.472-11.538
		l1.617,1.044c2.985,1.909,3.124,3.383,0.338,7.87c-3.591,5.794-3.387,8.862,1.141,11.814c1.34,0.879,3.503,1.534,5.111,1.646
		l0.277-0.938c-2.117-0.768-2.681-1.53-2.764-1.965c-0.162-0.933,0.555-2.356,2.551-5.471c2.324-3.549,1.479-6.996-3.082-11.321
		l0.06-0.055c3.337,1.7,9.298,3.83,11.968-0.277c2.805-4.371-0.027-8.53-3.742-10.979L386.2,64.885l-0.74,1.15l2.967,1.917
		l-14.647,22.643l-2.897-1.862l-0.725,1.095L382.401,97.757z"/>
	<path fill="#231815" d="M155.566,101.916h1.188v6.502h-1.188c-0.915-3.442-3.41-6.012-6.021-6.012c-2.805,0-4.066,1.58-4.621,3.66
		c-0.277,1.044-0.347,2.19-0.347,3.34v6.835c0,2.019,0,4.214,0.67,6.016c0.587,1.534,1.65,1.751,3.591,1.751
		c2.217,0,3.179-1.149,3.179-2.841v-4.27h-2.902v-1.04h10.804v1.04h-2.024v3.502c0,0.49-1.774,2.182-2.205,2.569
		c-1.354,1.099-3.035,2.023-7.116,2.023c-5.915,0-10.614-5.577-10.614-11.431c0-6.724,5.461-12.135,11.214-12.135
		c1.848,0,3.72,0.651,5.245,1.691L155.566,101.916z"/>
	<path fill="#231815" d="M162.127,124.498v-0.979h2.699v-20.563h-2.389v-1.04h18.483l0.208,6.063h-1.155
		c-1.422-3.766-2.911-5.022-6.284-5.022H170.5v9.408c3.304,0,4.011-0.993,4.704-4.107h1.109v9.629h-1.109
		c-0.49-3.229-1.4-4.324-4.704-4.324v9.957h3.304c5.254,0,6.206-2.514,7.116-6.399h1.04l-0.208,7.379H162.127z"/>
	<path fill="#231815" d="M203.77,124.992h-0.795l-14.454-20.072v17.337c0,0.828,0.471,1.146,1.303,1.262h1.94v0.979h-7.439v-0.979
		h1.617c1.146-0.115,1.229-0.822,1.229-1.807V105.03c0-1.645,0.295-2.074-1.738-2.074h-1.108v-1.04h8.918l9.509,13.401v-11.382
		c0-0.716-1.386-0.979-2.227-0.979h-0.961v-1.04h7.125v1.04h-1.405c-0.984,0-1.516,0.264-1.516,0.979V124.992z"/>
	<path fill="#231815" d="M209.075,124.498v-0.979h2.689v-20.563h-2.394v-1.04h18.521l0.185,6.063h-1.155
		c-1.424-3.766-2.889-5.022-6.284-5.022h-3.179v9.408c3.317,0,4.033-0.993,4.703-4.107h1.118v9.629h-1.118
		c-0.471-3.229-1.386-4.324-4.703-4.324v9.957h3.317c5.245,0,6.201-2.514,7.116-6.399h1.039l-0.207,7.379H209.075z"/>
	<path fill="#231815" d="M230.516,101.916h10.488v1.04h-2.615l5.651,13.895l4.561-13.192c0.083-0.272-0.019-0.702-1.94-0.702h-1.142
		v-1.04h7.069v1.04h-1.385c-0.818,0-1.156,0.162-2.427,3.882l-6.321,18.154h-1.063l-8.951-22.036h-1.926V101.916z"/>
	<path fill="#231815" d="M254.174,124.498v-0.979h2.726v-20.563h-2.417v-1.04h18.484l0.207,6.063h-1.155
		c-1.423-3.766-2.901-5.022-6.284-5.022h-3.179v9.408c3.309,0,4.034-0.993,4.713-4.107h1.108v9.629h-1.108
		c-0.479-3.229-1.404-4.324-4.713-4.324v9.957h3.309c5.253,0,6.191-2.514,7.103-6.399h1.039l-0.185,7.379H254.174z"/>
</g>
</svg>
