<svg clip-rule="evenodd" fill-rule="evenodd" stroke-linejoin="round" stroke-miterlimit="2" viewBox="0 0 560 400" xmlns="http://www.w3.org/2000/svg"><path d="m414.806 32.315v21.018c-.069.667-.006 1.341.185 1.983s.508 1.239.931 1.757h-8.081l-15.262-17.713v12.655c0 2.027-.45 3.385 1.115 4.959h-9.665c.845-1.09 1.25-2.46 1.134-3.837v-19.464c0-2.047.431-3.405-1.134-4.979h8.765l14.597 17.181v-12.202c0-2.047.45-3.405-1.115-4.979h9.646c-.791 1.034-1.186 2.319-1.116 3.621zm-36.745 21.018c-.135 1.444.262 2.887 1.116 4.055h-9.667c.45-.565.783-1.215.978-1.911.195-.697.248-1.426.157-2.144v-20.349c.128-.718.093-1.456-.104-2.158-.196-.702-.549-1.351-1.031-1.896h9.667c-.449.565-.779 1.215-.971 1.912-.191.697-.241 1.425-.145 2.142zm-26.513-24.639c3.664.137 7.132 1.697 9.675 4.352 2.544 2.655 3.965 6.199 3.965 9.886 0 3.688-1.421 7.231-3.965 9.887-2.543 2.655-6.011 4.215-9.675 4.352h-15.946c.963-1.467 1.36-3.238 1.115-4.979v-18.519c0-2.047.45-3.405-1.115-4.979zm0 21.235c1.817 0 3.559-.726 4.843-2.018s2.006-3.044 2.006-4.87c0-1.827-.722-3.579-2.006-4.871s-3.026-2.017-4.843-2.017h-7.415v13.776zm-26.512-.906 7.201 8.148h-9.666l-6.066-6.79h-6.515v3.7c-.033 1.159.365 2.289 1.115 3.169h-9.627c.848-1.126 1.246-2.53 1.115-3.936v-20.547c.126-.719.091-1.458-.102-2.162-.193-.705-.539-1.358-1.013-1.911h18.862c2.787.097 5.427 1.285 7.356 3.31 1.93 2.026 2.997 4.729 2.975 7.534-.069 1.93-.622 3.812-1.607 5.47s-2.371 3.039-4.028 4.015zm-4.715-5.904v.04h.313c.845-.158 1.593-.647 2.081-1.359s.675-1.589.521-2.44c.054-.865-.214-1.72-.753-2.397-.54-.677-1.311-1.128-2.162-1.263h-10.331v7.419zm-35.259-14.425 13.853 28.477h-9.431c.45-.394.45-1.063.235-1.968l-.9-1.968h-15.282l-.9 1.968c-.215.297-.31.665-.266 1.03.043.365.222.7.501.938h-9.45l11.739-24.404c.402-.602.616-1.311.616-2.036 0-.726-.214-1.435-.616-2.037zm-8.1 17.181h8.08l-4.03-8.601zm-17.747-13.344v21.334c.259 1.271.714 2.492 1.35 3.621h-8.296l-15.281-17.712v12.418c0 2.047-.45 3.405 1.115 4.979h-9.646c.826-1.099 1.223-2.464 1.115-3.838v-19.444c0-2.027.45-3.385-1.115-4.959h8.746l14.596 17.161v-12.202c0-2.027.45-3.385-1.115-4.959h9.666c-.804 1.02-1.208 2.302-1.135 3.601zm-30.289 32.532 15.418-1.634-11.739 9.486-1.116-2.716-23.127 9.742-23.147-9.722-1.115 2.716-11.74-9.486 15.262 1.574-1.116 2.716c5.842 1.938 11.858 3.296 17.962 4.054l1.8-46.091-15.281-1.968 15.516-2.263.215-4.743c-1.893-.429-3.588-1.488-4.809-3.006-1.222-1.518-1.899-3.405-1.921-5.358.025-2.207.906-4.317 2.456-5.879 1.55-1.563 3.646-2.454 5.84-2.485 1.095 0 2.179.218 3.19.643 1.01.424 1.927 1.046 2.697 1.83.77.783 1.377 1.713 1.788 2.734.41 1.022.614 2.115.601 3.216.01 1.961-.656 3.865-1.882 5.39-1.227 1.524-2.94 2.575-4.849 2.974l.216 4.743 15.496 2.263-15.281 1.968 1.82 46.091c6.137-.567 12.176-1.936 17.961-4.073zm-25.436-56.699v.217c.031 1.228.544 2.394 1.428 3.242.884.849 2.066 1.31 3.287 1.284.933 0 1.845-.278 2.62-.799.776-.521 1.38-1.262 1.737-2.129s.45-1.82.268-2.74-.631-1.765-1.29-2.429c-.66-.663-1.5-1.115-2.415-1.298-.914-.183-1.862-.089-2.724.27s-1.598.967-2.116 1.747c-.519.78-.795 1.697-.795 2.635zm-20.408 27.06v.492h-15.281v4.074h14.381v6.396h-14.381v3.936h15.281c1.294.113 2.58-.29 3.581-1.121v7.97h-27.178c.972-1.463 1.37-3.238 1.116-4.979v-18.519c0-2.047.45-3.405-1.116-4.979h27.178v7.872c-1.047-.745-2.298-1.144-3.581-1.142zm-50.559 1.85h-.059c0 2.5 5.616 2.047 8.316 2.264 6.261.688 12.131 1.81 12.131 8.364 0 4.743-4.05 9.485-13.696 9.485-4.577-.041-9.095-1.04-13.266-2.932-.88-.196-1.781-.276-2.681-.236l4.187-7.262c.45 1.063 1.35 1.279 2.25 1.968 2.781 1.18 5.75 1.847 8.766 1.968 4.931 0 7.396-1.122 7.631-2.263.45-2.48-2.485-1.968-8.981-2.696-6.496-.729-12.366-2.5-12.366-8.601 0-1.81 1.135-8.797 12.366-8.797 4.274-.065 8.528.6 12.581 1.968.942.298 1.94.372 2.915.217l-3.228 7.518c-.201-.463-.51-.87-.902-1.185-.393-.316-.855-.531-1.348-.626-2.795-.717-5.666-1.094-8.551-1.122-5.165 0-6.065.847-6.065 1.968zm-33.909 0h.059c0 2.5 5.4 2.047 8.551 2.264 6.261.688 12.131 1.81 12.131 8.364 0 4.743-4.051 9.485-13.697 9.485-4.597.029-9.148-.91-13.364-2.755-.879-.196-1.78-.276-2.68-.236l4.03-7.439c.451 1.063 1.351 1.279 2.251 1.968 2.78 1.18 5.75 1.847 8.765 1.968 4.931 0 7.396-1.122 7.631-2.263.45-2.48-2.485-1.968-8.981-2.696-6.496-.729-12.366-2.5-12.366-8.601 0-1.81 1.135-8.797 12.366-8.797 4.197-.055 8.373.61 12.347 1.968.942.298 1.94.372 2.915.217l-3.131 7.459c-.21-.447-.521-.838-.908-1.142-.388-.304-.84-.513-1.322-.61-2.789-.717-5.653-1.094-8.531-1.122-5.166 0-6.066.847-6.066 1.968zm-21.562 8.817h.216v7.38c-.058.646.013 1.297.208 1.915.195.619.51 1.192.926 1.687h-9.665c.716-.991 1.069-2.202.997-3.425v-7.675l-12.581-17.397h10.566c-.28.24-.454.582-.483.951s.088.735.327 1.017l5.87 7.872 5.615-7.459c.226-.119.41-.304.528-.531.079-.149.128-.312.144-.479.016-.168-.001-.337-.051-.498-.049-.16-.129-.31-.235-.44-.107-.129-.238-.237-.386-.315h10.566zm-31.012-13.776v17.378h12.816c1.3.12 2.595-.284 3.6-1.122v8.6h-24.947c.802-1.029 1.205-2.316 1.135-3.621v-21.235c.107-1.31-.3-2.61-1.135-3.621h9.665c-.808 1.025-1.212 2.314-1.134 3.621zm-14.734 0h-.411v12.457c-.02 3.078-1.138 6.046-3.15 8.365-3.256 2.81-7.454 4.267-11.74 4.073-6.124 0-9.939-2.105-11.74-4.073-2.05-2.311-3.173-5.307-3.15-8.404v-12.654c.081-1.298-.316-2.58-1.115-3.602h9.666c-.746 1.05-1.137 2.312-1.116 3.602v12.753c-.058.578.012 1.162.205 1.71.193.547.504 1.045.911 1.458 1.868 1.419 4.179 2.117 6.515 1.968 2.916 0 5.401-.394 6.516-1.968.37-.39.658-.85.85-1.354.191-.503.281-1.04.265-1.578v-12.438c.132-.698.099-1.418-.094-2.101-.194-.683-.544-1.312-1.021-1.835h9.724c-.743 1.058-1.133 2.326-1.115 3.621z" fill="#001038" transform="matrix(1.12583 0 0 1.12583 45.8712 155)"/></svg>